<?xml version="1.0" standalone="no"?>
<!DOCTYPE svg PUBLIC "-//W3C//DTD SVG 20010904//EN"
 "http://www.w3.org/TR/2001/REC-SVG-20010904/DTD/svg10.dtd">
<svg version="1.0" xmlns="http://www.w3.org/2000/svg"
 width="555.000000pt" height="530.000000pt" viewBox="0 0 555.000000 530.000000"
 preserveAspectRatio="xMidYMid meet">

<g transform="translate(0.000000,530.000000) scale(0.100000,-0.100000)"
fill="#000000" stroke="none">
<path d="M0 2650 l0 -2650 2775 0 2775 0 0 2650 0 2650 -2775 0 -2775 0 0
-2650z m3045 1801 c89 -43 134 -52 201 -37 l31 7 6 -53 c13 -101 10 -115 -20
-120 -16 -3 -35 -7 -43 -9 -9 -3 -16 4 -18 19 -2 12 -8 22 -13 22 -14 0 -11
-67 6 -107 8 -19 15 -48 15 -64 0 -15 3 -30 8 -32 4 -3 5 16 4 43 -3 41 -1 48
17 53 20 5 21 1 20 -51 -1 -68 -19 -134 -38 -140 -11 -4 -10 1 2 19 10 13 17
33 16 44 -1 16 -2 16 -8 -5 -7 -26 -4 -26 -105 -17 -38 3 -45 24 -12 37 28 10
29 13 20 59 -8 39 -24 41 -24 3 0 -20 -14 -41 -50 -77 -27 -27 -50 -54 -50
-59 0 -5 13 3 28 18 26 24 30 25 42 11 7 -8 20 -15 29 -16 9 0 -10 -6 -41 -13
-32 -7 -68 -22 -82 -35 -18 -17 -25 -19 -29 -9 -4 10 -8 10 -17 -2 -9 -12 -25
0 -94 74 -93 98 -96 106 -96 238 l0 77 45 37 c42 34 45 39 45 86 l0 50 59 -4
c43 -3 82 -15 146 -47z m-405 -131 c6 -10 10 -30 10 -43 0 -14 7 -30 15 -37 9
-8 15 -30 15 -58 0 -45 0 -45 -21 -26 -15 14 -19 26 -15 48 4 17 1 35 -6 44
-7 8 -17 29 -23 46 -7 23 -17 32 -37 34 -22 3 -30 -3 -43 -28 -17 -34 -13 -81
9 -99 10 -8 12 1 8 44 -4 45 -2 55 11 55 21 0 32 -19 18 -33 -18 -18 -13 -43
17 -78 19 -24 22 -31 10 -26 -21 8 -24 -6 -4 -22 7 -6 21 -8 31 -5 13 5 16 3
13 -7 -3 -8 -17 -14 -33 -14 -23 0 -35 11 -71 64 -25 36 -44 75 -44 90 0 32
25 70 54 80 27 10 73 -6 86 -29z m-90 -200 c0 -19 40 -50 64 -50 32 0 46 -41
46 -141 l0 -78 60 -57 c65 -62 114 -135 149 -224 12 -30 33 -69 47 -85 l25
-30 -16 32 c-24 50 -18 58 19 25 19 -17 44 -33 55 -37 17 -5 19 -12 14 -38
l-6 -31 38 37 c45 43 55 46 55 13 0 -19 4 -23 20 -19 45 12 17 -28 -49 -70
-38 -25 -57 -56 -25 -42 11 5 37 10 59 12 l40 4 -23 -20 c-46 -40 -143 -37
-208 5 -38 25 -22 27 31 4 108 -46 53 -10 -110 74 -96 49 -188 102 -204 116
-39 36 -61 113 -61 212 0 50 -4 78 -11 78 -8 0 -10 -38 -8 -125 4 -108 2 -124
-11 -119 -54 25 -129 45 -180 51 -34 3 -62 9 -65 12 -2 4 45 61 104 128 l108
121 13 126 c8 69 17 126 22 126 4 0 8 -4 8 -10z m648 -232 c7 -7 12 -21 12
-32 0 -16 -3 -17 -12 -8 -18 18 -53 14 -73 -8 -22 -24 -38 -25 -56 -4 -16 20
-2 46 32 55 39 11 84 10 97 -3z m-978 -445 c29 -16 52 -32 49 -38 -2 -5 -26
-17 -52 -26 -27 -9 -61 -26 -76 -37 -24 -18 -34 -19 -68 -10 -27 6 -52 6 -77
0 l-36 -10 37 45 c49 60 109 103 143 103 14 0 51 -12 80 -27z m138 -97 c63
-33 161 -165 198 -266 35 -94 39 -195 10 -253 -18 -37 -72 -81 -131 -106 -28
-12 -27 -9 16 36 49 51 82 102 94 143 7 24 6 24 -8 5 -14 -18 -15 -15 -11 40
l4 60 -34 -50 c-31 -46 -66 -85 -66 -72 0 2 11 24 24 48 22 40 57 154 56 182
-1 7 -14 -13 -30 -43 -49 -95 -240 -270 -295 -270 -32 0 -67 45 -94 121 -35
97 -35 97 -38 63 -4 -29 19 -196 33 -241 4 -17 2 -23 -8 -23 -9 0 -42 -13 -74
-30 l-59 -29 -35 22 c-51 33 -81 44 -136 52 -62 10 -81 19 -98 53 -72 141 39
400 206 477 61 29 131 32 184 10 37 -15 38 -21 13 -99 -14 -46 -11 -54 11 -22
10 17 24 51 30 77 9 36 21 55 48 76 66 51 138 66 190 39z m1279 -72 c60 -29
130 -102 164 -171 26 -53 30 -139 15 -308 -8 -86 -7 -92 18 -135 77 -133 97
-200 76 -255 l-11 -29 -28 50 c-52 96 -146 189 -226 226 -14 6 -25 15 -25 19
0 20 68 42 125 42 l60 -1 -28 24 c-16 13 -39 24 -52 24 l-24 0 24 52 c46 99
42 190 -11 271 -33 50 -40 42 -14 -14 29 -65 27 -151 -5 -216 -42 -84 -51 -83
-47 6 6 122 -43 272 -127 395 -17 25 -31 48 -31 51 0 14 95 -7 147 -31z
m-1126 -357 c-10 -9 -11 -8 -5 6 3 10 9 15 12 12 3 -3 0 -11 -7 -18z m-778
-223 c68 -13 128 -45 170 -90 l25 -27 38 31 c87 70 234 103 301 68 43 -22 74
-104 80 -217 7 -112 -1 -129 -65 -129 -54 0 -101 13 -262 69 -123 43 -193 51
-226 26 -18 -14 -16 -15 22 -9 61 9 111 -12 176 -74 32 -30 58 -58 58 -61 0
-4 -14 -15 -32 -25 -50 -30 -104 -83 -139 -137 -34 -54 -35 -79 0 -30 35 49
149 118 232 140 183 48 264 36 361 -57 32 -30 72 -80 89 -109 17 -29 36 -53
42 -53 7 1 41 7 77 15 36 8 70 14 77 15 6 0 17 -25 23 -56 7 -31 27 -84 45
-119 l34 -63 -102 -55 c-202 -111 -360 -157 -533 -157 -148 0 -252 29 -357 98
-44 29 -38 36 39 45 29 3 69 13 90 23 27 11 61 16 109 15 126 -4 271 35 388
105 80 46 101 72 30 35 -62 -31 -161 -59 -252 -71 -82 -11 -114 -9 -69 5 79
25 299 157 285 172 -3 2 -44 -16 -93 -41 -181 -91 -325 -125 -525 -126 l-126
0 -12 26 c-6 15 -14 46 -18 70 -3 24 -10 44 -16 44 -14 0 1 -131 25 -209 30
-96 44 -121 73 -121 27 0 142 -57 194 -98 20 -15 63 -42 96 -60 l60 -33 -137
6 c-181 7 -236 18 -269 53 -48 50 -95 198 -124 392 -28 190 -29 193 -18 187 6
-4 13 -28 17 -55 3 -27 13 -57 21 -68 14 -17 15 -15 9 32 -13 105 32 275 100
374 16 25 51 67 76 94 91 99 -50 -4 -167 -121 -51 -52 -99 -93 -106 -91 -26 9
-47 72 -47 143 0 83 36 194 95 301 l39 69 17 -40 c17 -38 21 -40 82 -51z
m2292 -393 c15 -45 19 -162 7 -194 -6 -15 -14 -10 -55 31 l-48 49 11 64 c6 35
14 84 17 108 l6 45 23 -30 c13 -16 31 -49 39 -73z m-59 -223 c17 -34 29 -75
32 -116 6 -74 21 -65 22 13 l1 50 18 -34 19 -35 8 45 7 44 13 -40 c7 -22 13
-68 13 -102 l1 -62 -52 -16 c-85 -25 -83 -26 -67 44 7 32 6 60 -3 100 l-12 56
-7 -67 c-4 -41 -17 -85 -31 -110 -22 -41 -25 -43 -76 -46 -61 -4 -63 3 -23 61
47 69 79 140 92 205 7 34 14 62 16 62 1 0 15 -24 29 -52z m-1083 -302 c4 -9
-8 -19 -36 -30 l-41 -16 29 30 c32 33 40 36 48 16z m-88 -105 c-24 -23 -236
-132 -295 -151 -73 -25 -208 -37 -259 -23 -31 8 -21 12 120 47 85 21 215 60
289 86 143 51 160 56 145 41z m-1649 -416 c28 -28 29 -24 -18 -155 -37 -102
-39 -105 -100 -136 -44 -22 -58 -24 -203 -24 -85 0 -155 2 -155 4 0 2 25 73
55 157 31 85 58 160 60 167 3 9 47 12 170 12 164 0 166 0 191 -25z m464 16 c0
-4 -5 -22 -11 -40 l-11 -31 -124 0 c-69 0 -124 -4 -124 -9 0 -5 -3 -16 -6 -25
-5 -14 7 -16 100 -16 58 0 106 -4 106 -9 0 -4 -5 -22 -11 -39 l-11 -31 -111
-3 c-104 -3 -112 -4 -112 -23 0 -19 8 -20 113 -23 61 -1 112 -5 112 -8 0 -2
-7 -20 -14 -39 l-15 -35 -143 0 c-137 1 -144 2 -170 25 -16 13 -28 32 -28 43
0 10 20 74 45 142 25 68 45 125 45 127 0 2 83 3 185 3 102 0 185 -4 185 -9z
m404 -30 l39 -39 -48 -131 -48 -131 -64 0 -65 0 7 30 7 30 -56 0 c-30 0 -58 5
-61 10 -11 18 -22 10 -40 -30 l-18 -40 -69 0 -69 0 73 143 c70 135 75 143 123
169 45 25 60 28 150 28 l101 0 38 -39z m509 -1 l-16 -39 -70 -3 -71 -3 -40
-112 c-45 -127 -66 -147 -142 -141 l-42 3 44 119 c24 66 44 123 44 128 0 4
-29 8 -65 8 -36 0 -65 3 -65 7 0 4 5 22 12 40 l12 33 207 0 207 0 -15 -40z
m187 37 c0 -2 -9 -30 -20 -62 -11 -32 -20 -60 -20 -62 0 -2 33 -3 72 -1 l73 3
21 60 21 60 68 3 c60 3 66 1 61 -15 -3 -10 -28 -79 -55 -153 -55 -151 -71
-170 -149 -170 -48 0 -48 0 -16 79 8 18 14 37 14 42 0 5 -26 9 -58 9 -32 0
-63 5 -68 10 -7 7 -19 -13 -36 -62 l-25 -73 -67 -3 c-36 -2 -66 -1 -66 1 0 3
25 74 55 158 31 85 58 160 60 167 3 8 26 12 70 12 36 0 65 -2 65 -3z m900 -15
c28 -23 29 -60 2 -122 -15 -36 -30 -51 -70 -73 -42 -23 -61 -27 -130 -27 -69
0 -81 3 -84 18 -2 9 -15 -13 -28 -50 l-25 -68 -67 0 -67 0 36 98 c19 53 46
130 60 170 l25 72 163 0 c143 0 166 -2 185 -18z m229 -9 c-46 -119 -78 -217
-73 -224 3 -5 36 -9 74 -9 83 0 81 -2 135 153 l38 107 67 0 68 0 -48 -131
c-27 -72 -50 -132 -52 -134 -1 -2 -32 -20 -67 -39 l-64 -37 -145 3 c-121 3
-147 6 -155 19 -8 13 3 54 43 168 l54 151 68 0 68 0 -11 -27z m513 -74 l3
-101 78 101 77 101 71 0 c68 0 70 -1 63 -22 -4 -13 -30 -88 -59 -168 l-53
-145 -66 -3 c-36 -2 -66 -1 -66 2 0 3 13 40 30 83 29 77 30 77 5 48 -13 -16
-41 -54 -62 -82 -29 -40 -44 -53 -64 -53 -24 0 -27 5 -33 46 -3 26 -6 61 -7
78 0 25 -6 16 -28 -44 l-28 -75 -67 -3 c-36 -2 -66 -1 -66 0 0 5 97 274 111
311 11 26 14 27 85 27 l73 0 3 -101z m693 89 c32 -14 40 -46 25 -95 -19 -60
-37 -81 -90 -108 -40 -21 -64 -25 -130 -25 -69 0 -80 2 -81 18 0 9 -11 -12
-23 -48 l-23 -65 -66 -3 c-37 -2 -67 -1 -67 2 0 4 88 253 111 314 8 21 12 22
163 22 97 0 165 -4 181 -12z m-3201 -623 c-4 -9 -19 -15 -35 -15 -16 0 -29 -4
-29 -10 0 -5 11 -10 25 -10 16 0 25 -6 25 -15 0 -10 -10 -15 -30 -15 -16 0
-30 -4 -30 -10 0 -5 14 -10 30 -10 20 0 30 -5 30 -15 0 -11 -12 -15 -50 -15
-27 0 -50 4 -50 8 0 5 5 34 11 65 l12 57 48 0 c39 0 47 -3 43 -15z m241 -5 c0
-10 -8 -14 -27 -12 -35 4 -37 -14 -3 -22 34 -9 42 -32 20 -56 -19 -21 -60 -26
-84 -11 -22 14 -3 31 29 24 39 -7 39 9 0 24 -35 13 -37 26 -9 54 23 23 74 23
74 -1z m275 9 c0 -6 -9 -13 -20 -16 -20 -5 -23 -13 -35 -70 -4 -23 -12 -33
-24 -33 -16 0 -17 5 -10 43 11 57 11 57 -6 57 -8 0 -15 7 -15 15 0 12 13 15
55 15 33 0 55 -4 55 -11z m242 -1 c28 -22 27 -69 -2 -98 -14 -14 -33 -20 -65
-20 -25 0 -45 4 -45 8 0 5 5 34 11 65 12 57 12 57 48 57 21 0 44 -6 53 -12z
m442 6 c23 -9 20 -44 -6 -71 -18 -20 -19 -23 -5 -23 9 0 17 -7 17 -15 0 -11
-12 -15 -45 -15 -56 0 -59 17 -10 54 36 28 39 52 5 41 -25 -8 -35 11 -13 24
21 12 35 13 57 5z m264 -6 c30 -30 -6 -118 -48 -118 -31 0 -53 29 -46 64 10
52 65 83 94 54z m246 -4 c22 -21 20 -31 -10 -59 -26 -24 -26 -25 -6 -25 15 0
20 -5 16 -15 -8 -19 -94 -21 -94 -2 0 6 16 25 35 40 36 29 39 53 5 42 -25 -8
-35 11 -13 24 26 15 49 13 67 -5z m250 4 c-4 -7 -16 -25 -26 -40 -11 -16 -15
-28 -9 -28 6 0 11 5 11 10 0 14 19 12 35 -4 12 -12 12 -17 -4 -35 -19 -22 -41
-28 -41 -11 0 6 -13 10 -30 10 -18 0 -30 5 -30 13 0 23 63 97 83 97 12 0 16
-4 11 -12z"/>
<path d="M2945 4280 c-22 -5 -60 -6 -85 -4 l-45 4 40 -19 c39 -20 70 -32 90
-36 6 -1 27 -9 47 -19 21 -9 43 -16 50 -16 7 -1 2 -7 -12 -16 -24 -14 -22 -14
30 -10 30 3 62 7 71 11 24 9 41 53 29 73 -8 15 -9 15 -10 -2 0 -16 -5 -18 -36
-13 -20 3 -51 18 -69 32 -36 27 -38 27 -100 15z"/>
<path d="M864 1118 c-16 -45 -30 -86 -32 -90 -7 -15 116 -9 131 7 20 19 60
141 52 155 -3 5 -32 10 -64 10 l-58 0 -29 -82z"/>
<path d="M1802 1193 c-11 -4 -62 -93 -62 -108 0 -3 31 -5 68 -5 l68 0 18 50
c10 27 15 54 11 60 -6 10 -79 13 -103 3z"/>
<path d="M3360 1173 c-6 -15 -13 -34 -15 -40 -3 -10 12 -13 54 -13 63 0 96 21
89 57 -3 14 -14 19 -61 21 -55 3 -58 2 -67 -25z"/>
<path d="M4801 1169 c-16 -48 -15 -49 42 -49 61 0 85 14 89 50 3 24 0 25 -58
28 -61 3 -62 3 -73 -29z"/>
<path d="M2540 611 c0 -11 -3 -26 -6 -35 -9 -25 33 -20 46 5 15 27 6 49 -20
49 -13 0 -20 -7 -20 -19z"/>
<path d="M3256 614 c-10 -27 -7 -56 7 -52 14 5 23 68 9 68 -6 0 -13 -7 -16
-16z"/>
</g>
</svg>
